<svg width="100" height="30" viewBox="0 0 100 30" fill="none" xmlns="http://www.w3.org/2000/svg">
<g filter="url(#filter0_d_3669_35326)">
<rect x="5" y="5" width="90" height="20" rx="10" fill="white" stroke="#E4E4E4"/>
<mask id="path-2-outside-1_3669_35326" maskUnits="userSpaceOnUse" x="12" y="8" width="76" height="15" fill="black">
<rect fill="white" x="12" y="8" width="76" height="15"/>
<path d="M22.0771 11.2696C22.961 11.2696 23.6621 11.5404 24.1806 12.082C24.7076 12.6236 24.971 13.3759 24.971 14.3388V18.5427H22.8037V14.6354C22.8037 14.1711 22.6805 13.8143 22.434 13.565C22.1961 13.3071 21.8646 13.1782 21.4396 13.1782C21.0147 13.1782 20.679 13.3071 20.4325 13.565C20.1945 13.8143 20.0755 14.1711 20.0755 14.6354V18.5427H17.9082V14.6354C17.9082 14.1711 17.785 13.8143 17.5385 13.565C17.3006 13.3071 16.9691 13.1782 16.5441 13.1782C16.1192 13.1782 15.7835 13.3071 15.537 13.565C15.299 13.8143 15.18 14.1711 15.18 14.6354V18.5427H13V11.347H15.18V12.2497C15.401 11.9488 15.69 11.7124 16.0469 11.5404C16.4039 11.3599 16.8076 11.2696 17.2581 11.2696C17.7935 11.2696 18.2695 11.3857 18.6859 11.6178C19.1109 11.8499 19.4423 12.1809 19.6803 12.6107C19.9268 12.2153 20.2625 11.8929 20.6875 11.6436C21.1124 11.3943 21.5756 11.2696 22.0771 11.2696ZM33.7624 11.347L29.3004 21.96H26.9547L28.5864 18.2977L25.6925 11.347H28.1275L29.7721 15.8475L31.404 11.347H33.7624Z"/>
<path d="M37.7889 18.633C37.1345 18.633 36.5481 18.5255 36.0295 18.3106C35.5112 18.0957 35.0947 17.7776 34.7802 17.3563C34.4742 16.9351 34.3128 16.4278 34.2957 15.8346H36.616C36.65 16.1699 36.7648 16.4278 36.9602 16.6084C37.1557 16.7803 37.4107 16.8663 37.7252 16.8663C38.0482 16.8663 38.3031 16.7932 38.49 16.6471C38.6771 16.4923 38.7706 16.2817 38.7706 16.0152C38.7706 15.7917 38.6941 15.6068 38.5411 15.4607C38.3966 15.3145 38.2139 15.1942 37.9928 15.0996C37.7804 15.005 37.4744 14.8976 37.0749 14.7772C36.497 14.5967 36.0253 14.4161 35.6599 14.2356C35.2945 14.0551 34.9799 13.7885 34.7165 13.4361C34.453 13.0836 34.3213 12.6236 34.3213 12.0562C34.3213 11.2137 34.623 10.5561 35.2264 10.0832C35.8299 9.60179 36.616 9.36107 37.5849 9.36107C38.5708 9.36107 39.3655 9.60179 39.9689 10.0832C40.5724 10.5561 40.8954 11.218 40.9378 12.0691H38.5793C38.5623 11.7768 38.4561 11.549 38.2606 11.3857C38.0652 11.2137 37.8144 11.1278 37.5084 11.1278C37.245 11.1278 37.0326 11.2008 36.871 11.347C36.7096 11.4845 36.6288 11.6866 36.6288 11.9531C36.6288 12.2454 36.7648 12.4732 37.0368 12.6365C37.3087 12.7999 37.7337 12.9761 38.3115 13.1653C38.8895 13.363 39.3569 13.5521 39.714 13.7327C40.0794 13.9132 40.3939 14.1754 40.6573 14.5193C40.9208 14.8632 41.0526 15.3059 41.0526 15.8475C41.0526 16.3634 40.9208 16.8319 40.6573 17.2531C40.4024 17.6744 40.0285 18.0097 39.5354 18.259C39.0425 18.5083 38.4604 18.633 37.7889 18.633ZM41.9607 14.9448C41.9607 14.1969 42.1094 13.5435 42.407 12.9847C42.7129 12.4259 43.1337 11.9961 43.6691 11.6952C44.213 11.3943 44.8334 11.2438 45.5303 11.2438C46.4228 11.2438 47.1665 11.4802 47.7614 11.9531C48.3648 12.4259 48.76 13.0922 48.947 13.9519H46.6267C46.4312 13.4017 46.0531 13.1266 45.4921 13.1266C45.0926 13.1266 44.7739 13.2856 44.536 13.6037C44.298 13.9132 44.179 14.3602 44.179 14.9448C44.179 15.5295 44.298 15.9808 44.536 16.2989C44.7739 16.6084 45.0926 16.7631 45.4921 16.7631C46.0531 16.7631 46.4312 16.488 46.6267 15.9378H48.947C48.76 16.7803 48.3648 17.4423 47.7614 17.9237C47.1579 18.4052 46.4143 18.6459 45.5303 18.6459C44.8334 18.6459 44.213 18.4954 43.6691 18.1945C43.1337 17.8936 42.7129 17.4638 42.407 16.905C42.1094 16.3462 41.9607 15.6928 41.9607 14.9448ZM54.4859 11.2696C55.3018 11.2696 55.9563 11.5447 56.4492 12.0949C56.9421 12.6365 57.1886 13.3845 57.1886 14.3388V18.5427H55.0213V14.6354C55.0213 14.1539 54.8981 13.7799 54.6516 13.5134C54.4051 13.2469 54.0736 13.1137 53.6573 13.1137C53.2408 13.1137 52.9093 13.2469 52.6628 13.5134C52.4163 13.7799 52.2931 14.1539 52.2931 14.6354V18.5427H50.1131V9H52.2931V12.3142C52.5141 11.9961 52.8158 11.7424 53.1982 11.5533C53.5808 11.3642 54.0099 11.2696 54.4859 11.2696ZM65.4093 14.8288C65.4093 15.0351 65.3965 15.25 65.3711 15.4736H60.4373C60.4714 15.9206 60.6116 16.2645 60.858 16.5052C61.113 16.7373 61.4233 16.8534 61.7887 16.8534C62.3327 16.8534 62.7108 16.6213 62.9233 16.157H65.2435C65.1246 16.6299 64.9079 17.0554 64.5934 17.4337C64.2874 17.812 63.9007 18.1086 63.4332 18.3235C62.9658 18.5384 62.4432 18.6459 61.8652 18.6459C61.1683 18.6459 60.5479 18.4954 60.0039 18.1945C59.4599 17.8936 59.035 17.4638 58.729 16.905C58.423 16.3462 58.27 15.6928 58.27 14.9448C58.27 14.1969 58.4189 13.5435 58.7163 12.9847C59.0222 12.4259 59.4472 11.9961 59.9911 11.6952C60.5351 11.3943 61.1598 11.2438 61.8652 11.2438C62.5536 11.2438 63.1656 11.39 63.701 11.6823C64.2364 11.9746 64.6529 12.3915 64.9503 12.9331C65.2563 13.4747 65.4093 14.1066 65.4093 14.8288ZM63.1783 14.2485C63.1783 13.8702 63.0508 13.5693 62.7958 13.3458C62.5409 13.1223 62.2222 13.0105 61.8396 13.0105C61.4742 13.0105 61.164 13.118 60.909 13.3329C60.6626 13.5478 60.5096 13.853 60.4501 14.2485H63.1783ZM75.6365 11.2696C76.5203 11.2696 77.2215 11.5404 77.7401 12.082C78.2669 12.6236 78.5305 13.3759 78.5305 14.3388V18.5427H76.3632V14.6354C76.3632 14.1711 76.2399 13.8143 75.9935 13.565C75.7555 13.3071 75.424 13.1782 74.999 13.1782C74.5741 13.1782 74.2384 13.3071 73.9919 13.565C73.7539 13.8143 73.6349 14.1711 73.6349 14.6354V18.5427H71.4677V14.6354C71.4677 14.1711 71.3443 13.8143 71.098 13.565C70.86 13.3071 70.5285 13.1782 70.1036 13.1782C69.6785 13.1782 69.3429 13.3071 69.0965 13.565C68.8584 13.8143 68.7394 14.1711 68.7394 14.6354V18.5427H66.5595V11.347H68.7394V12.2497C68.9603 11.9488 69.2494 11.7124 69.6063 11.5404C69.9634 11.3599 70.367 11.2696 70.8175 11.2696C71.3529 11.2696 71.8288 11.3857 72.2453 11.6178C72.6703 11.8499 73.0017 12.1809 73.2397 12.6107C73.4861 12.2153 73.8219 11.8929 74.2469 11.6436C74.6718 11.3943 75.1351 11.2696 75.6365 11.2696ZM86.7609 14.8288C86.7609 15.0351 86.7481 15.25 86.7226 15.4736H81.7889C81.8229 15.9206 81.9631 16.2645 82.2095 16.5052C82.4645 16.7373 82.7748 16.8534 83.1402 16.8534C83.6843 16.8534 84.0624 16.6213 84.2748 16.157H86.5951C86.4761 16.6299 86.2594 17.0554 85.9449 17.4337C85.639 17.812 85.2523 18.1086 84.7848 18.3235C84.3174 18.5384 83.7947 18.6459 83.2167 18.6459C82.5198 18.6459 81.8994 18.4954 81.3554 18.1945C80.8115 17.8936 80.3865 17.4638 80.0805 16.905C79.7746 16.3462 79.6216 15.6928 79.6216 14.9448C79.6216 14.1969 79.7704 13.5435 80.0678 12.9847C80.3737 12.4259 80.7987 11.9961 81.3426 11.6952C81.8866 11.3943 82.5113 11.2438 83.2167 11.2438C83.9052 11.2438 84.5171 11.39 85.0525 11.6823C85.588 11.9746 86.0044 12.3915 86.3019 12.9331C86.6079 13.4747 86.7609 14.1066 86.7609 14.8288ZM84.5298 14.2485C84.5298 13.8702 84.4024 13.5693 84.1474 13.3458C83.8924 13.1223 83.5737 13.0105 83.1912 13.0105C82.8257 13.0105 82.5155 13.118 82.2606 13.3329C82.0142 13.5478 81.8612 13.853 81.8016 14.2485H84.5298Z"/>
</mask>
<path d="M22.0771 11.2696C22.961 11.2696 23.6621 11.5404 24.1806 12.082C24.7076 12.6236 24.971 13.3759 24.971 14.3388V18.5427H22.8037V14.6354C22.8037 14.1711 22.6805 13.8143 22.434 13.565C22.1961 13.3071 21.8646 13.1782 21.4396 13.1782C21.0147 13.1782 20.679 13.3071 20.4325 13.565C20.1945 13.8143 20.0755 14.1711 20.0755 14.6354V18.5427H17.9082V14.6354C17.9082 14.1711 17.785 13.8143 17.5385 13.565C17.3006 13.3071 16.9691 13.1782 16.5441 13.1782C16.1192 13.1782 15.7835 13.3071 15.537 13.565C15.299 13.8143 15.18 14.1711 15.18 14.6354V18.5427H13V11.347H15.18V12.2497C15.401 11.9488 15.69 11.7124 16.0469 11.5404C16.4039 11.3599 16.8076 11.2696 17.2581 11.2696C17.7935 11.2696 18.2695 11.3857 18.6859 11.6178C19.1109 11.8499 19.4423 12.1809 19.6803 12.6107C19.9268 12.2153 20.2625 11.8929 20.6875 11.6436C21.1124 11.3943 21.5756 11.2696 22.0771 11.2696ZM33.7624 11.347L29.3004 21.96H26.9547L28.5864 18.2977L25.6925 11.347H28.1275L29.7721 15.8475L31.404 11.347H33.7624Z" fill="#16A34A"/>
<path d="M37.7889 18.633C37.1345 18.633 36.5481 18.5255 36.0295 18.3106C35.5112 18.0957 35.0947 17.7776 34.7802 17.3563C34.4742 16.9351 34.3128 16.4278 34.2957 15.8346H36.616C36.65 16.1699 36.7648 16.4278 36.9602 16.6084C37.1557 16.7803 37.4107 16.8663 37.7252 16.8663C38.0482 16.8663 38.3031 16.7932 38.49 16.6471C38.6771 16.4923 38.7706 16.2817 38.7706 16.0152C38.7706 15.7917 38.6941 15.6068 38.5411 15.4607C38.3966 15.3145 38.2139 15.1942 37.9928 15.0996C37.7804 15.005 37.4744 14.8976 37.0749 14.7772C36.497 14.5967 36.0253 14.4161 35.6599 14.2356C35.2945 14.0551 34.9799 13.7885 34.7165 13.4361C34.453 13.0836 34.3213 12.6236 34.3213 12.0562C34.3213 11.2137 34.623 10.5561 35.2264 10.0832C35.8299 9.60179 36.616 9.36107 37.5849 9.36107C38.5708 9.36107 39.3655 9.60179 39.9689 10.0832C40.5724 10.5561 40.8954 11.218 40.9378 12.0691H38.5793C38.5623 11.7768 38.4561 11.549 38.2606 11.3857C38.0652 11.2137 37.8144 11.1278 37.5084 11.1278C37.245 11.1278 37.0326 11.2008 36.871 11.347C36.7096 11.4845 36.6288 11.6866 36.6288 11.9531C36.6288 12.2454 36.7648 12.4732 37.0368 12.6365C37.3087 12.7999 37.7337 12.9761 38.3115 13.1653C38.8895 13.363 39.3569 13.5521 39.714 13.7327C40.0794 13.9132 40.3939 14.1754 40.6573 14.5193C40.9208 14.8632 41.0526 15.3059 41.0526 15.8475C41.0526 16.3634 40.9208 16.8319 40.6573 17.2531C40.4024 17.6744 40.0285 18.0097 39.5354 18.259C39.0425 18.5083 38.4604 18.633 37.7889 18.633ZM41.9607 14.9448C41.9607 14.1969 42.1094 13.5435 42.407 12.9847C42.7129 12.4259 43.1337 11.9961 43.6691 11.6952C44.213 11.3943 44.8334 11.2438 45.5303 11.2438C46.4228 11.2438 47.1665 11.4802 47.7614 11.9531C48.3648 12.4259 48.76 13.0922 48.947 13.9519H46.6267C46.4312 13.4017 46.0531 13.1266 45.4921 13.1266C45.0926 13.1266 44.7739 13.2856 44.536 13.6037C44.298 13.9132 44.179 14.3602 44.179 14.9448C44.179 15.5295 44.298 15.9808 44.536 16.2989C44.7739 16.6084 45.0926 16.7631 45.4921 16.7631C46.0531 16.7631 46.4312 16.488 46.6267 15.9378H48.947C48.76 16.7803 48.3648 17.4423 47.7614 17.9237C47.1579 18.4052 46.4143 18.6459 45.5303 18.6459C44.8334 18.6459 44.213 18.4954 43.6691 18.1945C43.1337 17.8936 42.7129 17.4638 42.407 16.905C42.1094 16.3462 41.9607 15.6928 41.9607 14.9448ZM54.4859 11.2696C55.3018 11.2696 55.9563 11.5447 56.4492 12.0949C56.9421 12.6365 57.1886 13.3845 57.1886 14.3388V18.5427H55.0213V14.6354C55.0213 14.1539 54.8981 13.7799 54.6516 13.5134C54.4051 13.2469 54.0736 13.1137 53.6573 13.1137C53.2408 13.1137 52.9093 13.2469 52.6628 13.5134C52.4163 13.7799 52.2931 14.1539 52.2931 14.6354V18.5427H50.1131V9H52.2931V12.3142C52.5141 11.9961 52.8158 11.7424 53.1982 11.5533C53.5808 11.3642 54.0099 11.2696 54.4859 11.2696ZM65.4093 14.8288C65.4093 15.0351 65.3965 15.25 65.3711 15.4736H60.4373C60.4714 15.9206 60.6116 16.2645 60.858 16.5052C61.113 16.7373 61.4233 16.8534 61.7887 16.8534C62.3327 16.8534 62.7108 16.6213 62.9233 16.157H65.2435C65.1246 16.6299 64.9079 17.0554 64.5934 17.4337C64.2874 17.812 63.9007 18.1086 63.4332 18.3235C62.9658 18.5384 62.4432 18.6459 61.8652 18.6459C61.1683 18.6459 60.5479 18.4954 60.0039 18.1945C59.4599 17.8936 59.035 17.4638 58.729 16.905C58.423 16.3462 58.27 15.6928 58.27 14.9448C58.27 14.1969 58.4189 13.5435 58.7163 12.9847C59.0222 12.4259 59.4472 11.9961 59.9911 11.6952C60.5351 11.3943 61.1598 11.2438 61.8652 11.2438C62.5536 11.2438 63.1656 11.39 63.701 11.6823C64.2364 11.9746 64.6529 12.3915 64.9503 12.9331C65.2563 13.4747 65.4093 14.1066 65.4093 14.8288ZM63.1783 14.2485C63.1783 13.8702 63.0508 13.5693 62.7958 13.3458C62.5409 13.1223 62.2222 13.0105 61.8396 13.0105C61.4742 13.0105 61.164 13.118 60.909 13.3329C60.6626 13.5478 60.5096 13.853 60.4501 14.2485H63.1783ZM75.6365 11.2696C76.5203 11.2696 77.2215 11.5404 77.7401 12.082C78.2669 12.6236 78.5305 13.3759 78.5305 14.3388V18.5427H76.3632V14.6354C76.3632 14.1711 76.2399 13.8143 75.9935 13.565C75.7555 13.3071 75.424 13.1782 74.999 13.1782C74.5741 13.1782 74.2384 13.3071 73.9919 13.565C73.7539 13.8143 73.6349 14.1711 73.6349 14.6354V18.5427H71.4677V14.6354C71.4677 14.1711 71.3443 13.8143 71.098 13.565C70.86 13.3071 70.5285 13.1782 70.1036 13.1782C69.6785 13.1782 69.3429 13.3071 69.0965 13.565C68.8584 13.8143 68.7394 14.1711 68.7394 14.6354V18.5427H66.5595V11.347H68.7394V12.2497C68.9603 11.9488 69.2494 11.7124 69.6063 11.5404C69.9634 11.3599 70.367 11.2696 70.8175 11.2696C71.3529 11.2696 71.8288 11.3857 72.2453 11.6178C72.6703 11.8499 73.0017 12.1809 73.2397 12.6107C73.4861 12.2153 73.8219 11.8929 74.2469 11.6436C74.6718 11.3943 75.1351 11.2696 75.6365 11.2696ZM86.7609 14.8288C86.7609 15.0351 86.7481 15.25 86.7226 15.4736H81.7889C81.8229 15.9206 81.9631 16.2645 82.2095 16.5052C82.4645 16.7373 82.7748 16.8534 83.1402 16.8534C83.6843 16.8534 84.0624 16.6213 84.2748 16.157H86.5951C86.4761 16.6299 86.2594 17.0554 85.9449 17.4337C85.639 17.812 85.2523 18.1086 84.7848 18.3235C84.3174 18.5384 83.7947 18.6459 83.2167 18.6459C82.5198 18.6459 81.8994 18.4954 81.3554 18.1945C80.8115 17.8936 80.3865 17.4638 80.0805 16.905C79.7746 16.3462 79.6216 15.6928 79.6216 14.9448C79.6216 14.1969 79.7704 13.5435 80.0678 12.9847C80.3737 12.4259 80.7987 11.9961 81.3426 11.6952C81.8866 11.3943 82.5113 11.2438 83.2167 11.2438C83.9052 11.2438 84.5171 11.39 85.0525 11.6823C85.588 11.9746 86.0044 12.3915 86.3019 12.9331C86.6079 13.4747 86.7609 14.1066 86.7609 14.8288ZM84.5298 14.2485C84.5298 13.8702 84.4024 13.5693 84.1474 13.3458C83.8924 13.1223 83.5737 13.0105 83.1912 13.0105C82.8257 13.0105 82.5155 13.118 82.2606 13.3329C82.0142 13.5478 81.8612 13.853 81.8016 14.2485H84.5298Z" fill="#2F2B45"/>
<path d="M22.0771 11.2696C22.961 11.2696 23.6621 11.5404 24.1806 12.082C24.7076 12.6236 24.971 13.3759 24.971 14.3388V18.5427H22.8037V14.6354C22.8037 14.1711 22.6805 13.8143 22.434 13.565C22.1961 13.3071 21.8646 13.1782 21.4396 13.1782C21.0147 13.1782 20.679 13.3071 20.4325 13.565C20.1945 13.8143 20.0755 14.1711 20.0755 14.6354V18.5427H17.9082V14.6354C17.9082 14.1711 17.785 13.8143 17.5385 13.565C17.3006 13.3071 16.9691 13.1782 16.5441 13.1782C16.1192 13.1782 15.7835 13.3071 15.537 13.565C15.299 13.8143 15.18 14.1711 15.18 14.6354V18.5427H13V11.347H15.18V12.2497C15.401 11.9488 15.69 11.7124 16.0469 11.5404C16.4039 11.3599 16.8076 11.2696 17.2581 11.2696C17.7935 11.2696 18.2695 11.3857 18.6859 11.6178C19.1109 11.8499 19.4423 12.1809 19.6803 12.6107C19.9268 12.2153 20.2625 11.8929 20.6875 11.6436C21.1124 11.3943 21.5756 11.2696 22.0771 11.2696ZM33.7624 11.347L29.3004 21.96H26.9547L28.5864 18.2977L25.6925 11.347H28.1275L29.7721 15.8475L31.404 11.347H33.7624Z" stroke="white" stroke-width="2" mask="url(#path-2-outside-1_3669_35326)"/>
<path d="M37.7889 18.633C37.1345 18.633 36.5481 18.5255 36.0295 18.3106C35.5112 18.0957 35.0947 17.7776 34.7802 17.3563C34.4742 16.9351 34.3128 16.4278 34.2957 15.8346H36.616C36.65 16.1699 36.7648 16.4278 36.9602 16.6084C37.1557 16.7803 37.4107 16.8663 37.7252 16.8663C38.0482 16.8663 38.3031 16.7932 38.49 16.6471C38.6771 16.4923 38.7706 16.2817 38.7706 16.0152C38.7706 15.7917 38.6941 15.6068 38.5411 15.4607C38.3966 15.3145 38.2139 15.1942 37.9928 15.0996C37.7804 15.005 37.4744 14.8976 37.0749 14.7772C36.497 14.5967 36.0253 14.4161 35.6599 14.2356C35.2945 14.0551 34.9799 13.7885 34.7165 13.4361C34.453 13.0836 34.3213 12.6236 34.3213 12.0562C34.3213 11.2137 34.623 10.5561 35.2264 10.0832C35.8299 9.60179 36.616 9.36107 37.5849 9.36107C38.5708 9.36107 39.3655 9.60179 39.9689 10.0832C40.5724 10.5561 40.8954 11.218 40.9378 12.0691H38.5793C38.5623 11.7768 38.4561 11.549 38.2606 11.3857C38.0652 11.2137 37.8144 11.1278 37.5084 11.1278C37.245 11.1278 37.0326 11.2008 36.871 11.347C36.7096 11.4845 36.6288 11.6866 36.6288 11.9531C36.6288 12.2454 36.7648 12.4732 37.0368 12.6365C37.3087 12.7999 37.7337 12.9761 38.3115 13.1653C38.8895 13.363 39.3569 13.5521 39.714 13.7327C40.0794 13.9132 40.3939 14.1754 40.6573 14.5193C40.9208 14.8632 41.0526 15.3059 41.0526 15.8475C41.0526 16.3634 40.9208 16.8319 40.6573 17.2531C40.4024 17.6744 40.0285 18.0097 39.5354 18.259C39.0425 18.5083 38.4604 18.633 37.7889 18.633ZM41.9607 14.9448C41.9607 14.1969 42.1094 13.5435 42.407 12.9847C42.7129 12.4259 43.1337 11.9961 43.6691 11.6952C44.213 11.3943 44.8334 11.2438 45.5303 11.2438C46.4228 11.2438 47.1665 11.4802 47.7614 11.9531C48.3648 12.4259 48.76 13.0922 48.947 13.9519H46.6267C46.4312 13.4017 46.0531 13.1266 45.4921 13.1266C45.0926 13.1266 44.7739 13.2856 44.536 13.6037C44.298 13.9132 44.179 14.3602 44.179 14.9448C44.179 15.5295 44.298 15.9808 44.536 16.2989C44.7739 16.6084 45.0926 16.7631 45.4921 16.7631C46.0531 16.7631 46.4312 16.488 46.6267 15.9378H48.947C48.76 16.7803 48.3648 17.4423 47.7614 17.9237C47.1579 18.4052 46.4143 18.6459 45.5303 18.6459C44.8334 18.6459 44.213 18.4954 43.6691 18.1945C43.1337 17.8936 42.7129 17.4638 42.407 16.905C42.1094 16.3462 41.9607 15.6928 41.9607 14.9448ZM54.4859 11.2696C55.3018 11.2696 55.9563 11.5447 56.4492 12.0949C56.9421 12.6365 57.1886 13.3845 57.1886 14.3388V18.5427H55.0213V14.6354C55.0213 14.1539 54.8981 13.7799 54.6516 13.5134C54.4051 13.2469 54.0736 13.1137 53.6573 13.1137C53.2408 13.1137 52.9093 13.2469 52.6628 13.5134C52.4163 13.7799 52.2931 14.1539 52.2931 14.6354V18.5427H50.1131V9H52.2931V12.3142C52.5141 11.9961 52.8158 11.7424 53.1982 11.5533C53.5808 11.3642 54.0099 11.2696 54.4859 11.2696ZM65.4093 14.8288C65.4093 15.0351 65.3965 15.25 65.3711 15.4736H60.4373C60.4714 15.9206 60.6116 16.2645 60.858 16.5052C61.113 16.7373 61.4233 16.8534 61.7887 16.8534C62.3327 16.8534 62.7108 16.6213 62.9233 16.157H65.2435C65.1246 16.6299 64.9079 17.0554 64.5934 17.4337C64.2874 17.812 63.9007 18.1086 63.4332 18.3235C62.9658 18.5384 62.4432 18.6459 61.8652 18.6459C61.1683 18.6459 60.5479 18.4954 60.0039 18.1945C59.4599 17.8936 59.035 17.4638 58.729 16.905C58.423 16.3462 58.27 15.6928 58.27 14.9448C58.27 14.1969 58.4189 13.5435 58.7163 12.9847C59.0222 12.4259 59.4472 11.9961 59.9911 11.6952C60.5351 11.3943 61.1598 11.2438 61.8652 11.2438C62.5536 11.2438 63.1656 11.39 63.701 11.6823C64.2364 11.9746 64.6529 12.3915 64.9503 12.9331C65.2563 13.4747 65.4093 14.1066 65.4093 14.8288ZM63.1783 14.2485C63.1783 13.8702 63.0508 13.5693 62.7958 13.3458C62.5409 13.1223 62.2222 13.0105 61.8396 13.0105C61.4742 13.0105 61.164 13.118 60.909 13.3329C60.6626 13.5478 60.5096 13.853 60.4501 14.2485H63.1783ZM75.6365 11.2696C76.5203 11.2696 77.2215 11.5404 77.7401 12.082C78.2669 12.6236 78.5305 13.3759 78.5305 14.3388V18.5427H76.3632V14.6354C76.3632 14.1711 76.2399 13.8143 75.9935 13.565C75.7555 13.3071 75.424 13.1782 74.999 13.1782C74.5741 13.1782 74.2384 13.3071 73.9919 13.565C73.7539 13.8143 73.6349 14.1711 73.6349 14.6354V18.5427H71.4677V14.6354C71.4677 14.1711 71.3443 13.8143 71.098 13.565C70.86 13.3071 70.5285 13.1782 70.1036 13.1782C69.6785 13.1782 69.3429 13.3071 69.0965 13.565C68.8584 13.8143 68.7394 14.1711 68.7394 14.6354V18.5427H66.5595V11.347H68.7394V12.2497C68.9603 11.9488 69.2494 11.7124 69.6063 11.5404C69.9634 11.3599 70.367 11.2696 70.8175 11.2696C71.3529 11.2696 71.8288 11.3857 72.2453 11.6178C72.6703 11.8499 73.0017 12.1809 73.2397 12.6107C73.4861 12.2153 73.8219 11.8929 74.2469 11.6436C74.6718 11.3943 75.1351 11.2696 75.6365 11.2696ZM86.7609 14.8288C86.7609 15.0351 86.7481 15.25 86.7226 15.4736H81.7889C81.8229 15.9206 81.9631 16.2645 82.2095 16.5052C82.4645 16.7373 82.7748 16.8534 83.1402 16.8534C83.6843 16.8534 84.0624 16.6213 84.2748 16.157H86.5951C86.4761 16.6299 86.2594 17.0554 85.9449 17.4337C85.639 17.812 85.2523 18.1086 84.7848 18.3235C84.3174 18.5384 83.7947 18.6459 83.2167 18.6459C82.5198 18.6459 81.8994 18.4954 81.3554 18.1945C80.8115 17.8936 80.3865 17.4638 80.0805 16.905C79.7746 16.3462 79.6216 15.6928 79.6216 14.9448C79.6216 14.1969 79.7704 13.5435 80.0678 12.9847C80.3737 12.4259 80.7987 11.9961 81.3426 11.6952C81.8866 11.3943 82.5113 11.2438 83.2167 11.2438C83.9052 11.2438 84.5171 11.39 85.0525 11.6823C85.588 11.9746 86.0044 12.3915 86.3019 12.9331C86.6079 13.4747 86.7609 14.1066 86.7609 14.8288ZM84.5298 14.2485C84.5298 13.8702 84.4024 13.5693 84.1474 13.3458C83.8924 13.1223 83.5737 13.0105 83.1912 13.0105C82.8257 13.0105 82.5155 13.118 82.2606 13.3329C82.0142 13.5478 81.8612 13.853 81.8016 14.2485H84.5298Z" stroke="white" stroke-width="2" mask="url(#path-2-outside-1_3669_35326)"/>
</g>
<defs>
<filter id="filter0_d_3669_35326" x="-1" y="0" width="102" height="30" filterUnits="userSpaceOnUse" color-interpolation-filters="sRGB">
<feFlood flood-opacity="0" result="BackgroundImageFix"/>
<feColorMatrix in="SourceAlpha" type="matrix" values="0 0 0 0 0 0 0 0 0 0 0 0 0 0 0 0 0 0 127 0" result="hardAlpha"/>
<feOffset/>
<feGaussianBlur stdDeviation="2"/>
<feComposite in2="hardAlpha" operator="out"/>
<feColorMatrix type="matrix" values="0 0 0 0 0 0 0 0 0 0 0 0 0 0 0 0 0 0 0.15 0"/>
<feBlend mode="normal" in2="BackgroundImageFix" result="effect1_dropShadow_3669_35326"/>
<feBlend mode="normal" in="SourceGraphic" in2="effect1_dropShadow_3669_35326" result="shape"/>
</filter>
</defs>
</svg>
