<?xml version="1.0" encoding="UTF-8"?>
<svg id="Layer_1" xmlns="http://www.w3.org/2000/svg" version="1.1" viewBox="0 0 2614.79 765.99">
  <!-- Generator: Adobe Illustrator 30.1.0, SVG Export Plug-In . SVG Version: 2.1.1 Build 136)  -->
  <defs>
    <style>
      .st0 {
        fill: #414042;
      }
    </style>
  </defs>
  <g>
    <path class="st0" d="M375.32,262.36c0,9.86-2.17,18.76-6.5,26.69-4.34,7.93-10.87,14.19-19.59,18.79-8.73,4.6-19.77,6.9-33.09,6.9-18.92,0-33.31-4.83-43.18-14.49-9.86-9.66-14.79-22.42-14.79-38.28v-91.96h30.18v87.36c0,11.73,2.41,19.99,7.2,24.79,4.8,4.8,11.93,7.19,21.39,7.19,6.66,0,12.06-1.13,16.2-3.4,4.13-2.27,7.16-5.8,9.1-10.59,1.92-4.8,2.89-10.86,2.89-18.19v-87.16h30.19v92.36Z"/>
    <path class="st0" d="M469.27,201.58c12,0,21.46,3.13,28.39,9.4,6.92,6.27,10.39,16.46,10.39,30.59v71.17h-29.99v-63.57c0-7.87-1.44-13.76-4.3-17.69-2.86-3.93-7.3-5.9-13.29-5.9-9.07,0-15.23,3.1-18.49,9.29-3.27,6.2-4.9,15.1-4.9,26.69v51.18h-30.19v-109.15h23.19l4.2,14.59h1.2c2.4-3.59,5.29-6.63,8.7-9.1,3.4-2.46,7.19-4.33,11.39-5.59,4.2-1.26,8.76-1.9,13.69-1.9Z"/>
    <path class="st0" d="M552.24,160.6c4.4,0,8.22,1.04,11.5,3.1,3.26,2.07,4.89,5.97,4.89,11.7s-1.63,9.26-4.89,11.39c-3.27,2.13-7.1,3.2-11.5,3.2s-8.4-1.07-11.6-3.2c-3.2-2.13-4.8-5.93-4.8-11.39s1.6-9.63,4.8-11.7c3.2-2.06,7.06-3.1,11.6-3.1ZM567.23,203.58v109.15h-30.19v-109.15h30.19Z"/>
    <path class="st0" d="M663.58,314.94c0-2.53.07-5.26.2-8.2.13-2.93.39-5.66.79-8.19h-1.2c-2.67,4.53-6.47,8.36-11.39,11.5-4.93,3.13-11.4,4.69-19.4,4.69-12.26,0-22.19-4.76-29.78-14.29-7.6-9.53-11.39-23.55-11.39-42.07,0-12.53,1.76-22.99,5.3-31.39,3.53-8.4,8.46-14.72,14.79-18.99,6.33-4.27,13.56-6.4,21.69-6.4s14.45,1.53,19.39,4.59c4.93,3.08,8.93,6.87,11.99,11.4h.8l2.8-14h25.59v157.13h-30.19v-45.78ZM643.39,290.95c5.33,0,9.63-1.04,12.89-3.1,3.27-2.07,5.6-5.26,7-9.6,1.4-4.33,2.1-9.69,2.1-16.09v-4.2c0-10.53-1.57-18.62-4.69-24.29-3.13-5.66-9.1-8.5-17.9-8.5-6.93,0-12.09,2.93-15.49,8.8-3.4,5.86-5.1,14.13-5.1,24.78s1.73,18.87,5.2,24.19c3.47,5.33,8.8,8,15.99,8Z"/>
    <path class="st0" d="M823.52,203.58v109.15h-23.19l-3.8-14h-1.8c-2.27,3.73-5.16,6.8-8.7,9.2-3.53,2.4-7.39,4.13-11.59,5.2s-8.63,1.6-13.3,1.6c-7.73,0-14.49-1.4-20.29-4.2-5.8-2.8-10.33-7.13-13.59-12.99-3.27-5.87-4.9-13.46-4.9-22.79v-71.17h30.38v63.57c0,7.73,1.37,13.57,4.1,17.49,2.73,3.93,7.1,5.9,13.1,5.9s10.89-1.36,14.29-4.1c3.4-2.73,5.76-6.76,7.09-12.1,1.33-5.33,2-11.86,2-19.59v-51.18h30.19Z"/>
    <path class="st0" d="M899.48,201.58c10.13,0,18.86,1.9,26.19,5.7,7.33,3.8,12.95,9.4,16.89,16.79,3.93,7.4,5.9,16.43,5.9,27.09v14.59h-70.17c.26,8.27,2.8,14.76,7.6,19.49,4.8,4.73,11.66,7.1,20.59,7.1,6.79,0,12.99-.67,18.59-2,5.6-1.33,11.33-3.32,17.2-5.99v22.59c-5.34,2.67-10.96,4.63-16.9,5.9-5.93,1.26-13.29,1.9-22.09,1.9-10.8,0-20.36-2-28.68-5.99-8.33-4-14.9-10.16-19.7-18.49-4.8-8.33-7.19-18.76-7.19-31.29s2.16-23.42,6.49-31.88c4.33-8.46,10.39-14.83,18.19-19.09,7.79-4.27,16.82-6.4,27.09-6.4ZM900.29,222.97c-6,0-10.87,1.9-14.59,5.7-3.73,3.8-5.93,9.43-6.6,16.89h41.18c0-4.4-.74-8.26-2.2-11.59-1.47-3.33-3.7-6-6.69-8-3-2-6.7-3-11.09-3Z"/>
    <path class="st0" d="M1081,312.73h-64.97v-17.2l17.39-7.99v-92.36l-17.39-8v-17.19h64.97v17.19l-17.39,8v92.36l17.39,7.99v17.2Z"/>
    <path class="st0" d="M1137.77,314.73c-11.99,0-21.82-4.76-29.49-14.29-7.67-9.53-11.5-23.55-11.5-42.07s3.86-32.96,11.6-42.48c7.73-9.53,17.85-14.29,30.38-14.29,5.2,0,9.69.7,13.49,2.1,3.8,1.4,7.13,3.29,9.99,5.7,2.86,2.4,5.23,5.13,7.1,8.19h1c-.4-2.4-.77-5.77-1.1-10.1s-.5-8.3-.5-11.9v-34.78h30.38v151.93h-23.19l-6-14.19h-1.2c-1.87,3.07-4.2,5.8-7,8.19-2.8,2.4-6.17,4.34-10.1,5.8-3.94,1.47-8.57,2.19-13.89,2.19ZM1148.36,290.54c8.27,0,14.06-2.37,17.39-7.1,3.33-4.72,5-11.95,5-21.69v-3.2c0-10.53-1.6-18.6-4.8-24.19-3.2-5.6-9.13-8.4-17.79-8.4-6.53,0-11.63,2.8-15.29,8.4-3.67,5.59-5.5,13.73-5.5,24.38s1.83,18.63,5.5,23.89c3.67,5.26,8.83,7.89,15.49,7.89Z"/>
    <path class="st0" d="M1274.91,201.58c10.13,0,18.86,1.9,26.19,5.7,7.33,3.8,12.95,9.4,16.89,16.79,3.93,7.4,5.9,16.43,5.9,27.09v14.59h-70.17c.26,8.27,2.8,14.76,7.6,19.49,4.8,4.73,11.66,7.1,20.59,7.1,6.79,0,12.99-.67,18.59-2,5.6-1.33,11.33-3.32,17.2-5.99v22.59c-5.34,2.67-10.96,4.63-16.9,5.9-5.93,1.26-13.29,1.9-22.09,1.9-10.8,0-20.36-2-28.68-5.99-8.33-4-14.9-10.16-19.7-18.49s-7.19-18.76-7.19-31.29,2.16-23.42,6.49-31.88c4.33-8.46,10.39-14.83,18.19-19.09,7.79-4.27,16.82-6.4,27.09-6.4ZM1275.71,222.97c-6,0-10.87,1.9-14.59,5.7-3.73,3.8-5.93,9.43-6.6,16.89h41.18c0-4.4-.74-8.26-2.2-11.59-1.47-3.33-3.7-6-6.69-8-3-2-6.7-3-11.09-3Z"/>
    <path class="st0" d="M1410.04,201.58c12,0,21.46,3.13,28.39,9.4,6.92,6.27,10.39,16.46,10.39,30.59v71.17h-29.99v-63.57c0-7.87-1.44-13.76-4.3-17.69-2.86-3.93-7.3-5.9-13.29-5.9-9.07,0-15.23,3.1-18.49,9.29-3.27,6.2-4.9,15.1-4.9,26.69v51.18h-30.19v-109.15h23.19l4.2,14.59h1.2c2.4-3.59,5.29-6.63,8.7-9.1,3.4-2.46,7.19-4.33,11.39-5.59,4.2-1.26,8.76-1.9,13.69-1.9Z"/>
    <path class="st0" d="M1524.6,290.95c3.33,0,6.52-.34,9.59-1,3.06-.67,6.13-1.47,9.2-2.4v22.19c-3.2,1.33-7.17,2.49-11.9,3.5-4.73,1-9.9,1.49-15.5,1.49-6.53,0-12.36-1.06-17.49-3.2-5.13-2.13-9.2-5.82-12.2-11.09-3-5.26-4.5-12.56-4.5-21.89v-52.57h-14.19v-12.6l16.39-9.99,8.59-22.99h18.99v23.19h30.59v22.39h-30.59v52.57c0,4.13,1.2,7.23,3.6,9.3,2.4,2.06,5.53,3.1,9.4,3.1Z"/>
    <path class="st0" d="M1579.77,160.6c4.4,0,8.22,1.04,11.5,3.1,3.26,2.07,4.89,5.97,4.89,11.7s-1.63,9.26-4.89,11.39c-3.27,2.13-7.1,3.2-11.5,3.2s-8.4-1.07-11.6-3.2c-3.2-2.13-4.8-5.93-4.8-11.39s1.6-9.63,4.8-11.7c3.2-2.06,7.06-3.1,11.6-3.1ZM1594.76,203.58v109.15h-30.19v-109.15h30.19Z"/>
    <path class="st0" d="M1685.52,225.97h-25.78v86.76h-29.79v-86.76h-16.39v-14.4l16.39-8v-8c0-9.33,1.57-16.56,4.7-21.69,3.13-5.13,7.6-8.76,13.39-10.89,5.8-2.13,12.63-3.2,20.49-3.2,5.87,0,11.16.47,15.89,1.4,4.73.94,8.57,2,11.5,3.2l-7.6,21.79c-2.27-.67-4.73-1.3-7.39-1.9-2.67-.6-5.74-.9-9.2-.9-4.13,0-7.17,1.27-9.1,3.8-1.93,2.53-2.89,5.73-2.89,9.6v6.79h25.78v22.39ZM1716.71,160.6c4.4,0,8.22,1.04,11.49,3.1,3.27,2.07,4.9,5.97,4.9,11.7s-1.63,9.26-4.9,11.39c-3.27,2.13-7.09,3.2-11.49,3.2s-8.4-1.07-11.6-3.2c-3.2-2.13-4.8-5.93-4.8-11.39s1.6-9.63,4.8-11.7c3.2-2.06,7.06-3.1,11.6-3.1ZM1731.7,203.58v109.15h-30.19v-109.15h30.19Z"/>
    <path class="st0" d="M1808.66,314.73c-10.53,0-19.76-1.97-27.69-5.9-7.93-3.93-14.1-10.06-18.49-18.39-4.4-8.32-6.6-18.89-6.6-31.69,0-13.46,2.4-24.38,7.19-32.78,4.8-8.4,11.33-14.56,19.59-18.49,8.26-3.93,17.65-5.9,28.19-5.9,6.39,0,12.42.67,18.09,2,5.66,1.33,10.69,3.13,15.09,5.4l-9,22.79c-3.99-1.73-8.03-3.16-12.09-4.3-4.07-1.13-8.1-1.7-12.09-1.7-5.2,0-9.6,1.2-13.19,3.6-3.6,2.4-6.33,6.03-8.2,10.9-1.87,4.86-2.8,10.96-2.8,18.29s.93,13.13,2.8,17.79c1.87,4.67,4.6,8.16,8.2,10.5,3.59,2.33,7.86,3.49,12.79,3.49,5.73,0,11.12-.77,16.19-2.3,5.07-1.53,9.86-3.56,14.4-6.09v24.59c-4.27,2.53-8.97,4.53-14.1,6-5.13,1.47-11.23,2.19-18.29,2.19Z"/>
    <path class="st0" d="M1913.02,201.58c13.72,0,24.19,3.23,31.38,9.69,7.2,6.47,10.8,16.03,10.8,28.68v72.77h-20.99l-5.8-14.79h-.79c-3.07,3.86-6.23,7.06-9.5,9.59-3.27,2.53-7.03,4.37-11.3,5.5-4.26,1.13-9.46,1.7-15.59,1.7s-12.13-1.23-17.19-3.7c-5.07-2.46-9.07-6.23-12-11.3-2.93-5.06-4.4-11.46-4.4-19.19,0-11.47,4.13-20.06,12.39-25.79,8.27-5.73,20.59-8.93,36.99-9.59l18.19-.61v-3.4c0-6.53-1.47-11.09-4.4-13.7-2.93-2.6-7.06-3.89-12.39-3.89-4.93,0-9.99.79-15.19,2.4-5.2,1.6-10.34,3.53-15.4,5.8l-8.8-20.59c5.73-2.93,12.3-5.26,19.69-6.99,7.4-1.73,15.5-2.6,24.3-2.6ZM1913.81,262.76c-9.46.27-16.06,1.8-19.79,4.6-3.73,2.8-5.6,6.73-5.6,11.79,0,4.67,1.3,8.09,3.9,10.29,2.6,2.2,6.03,3.3,10.29,3.3,6.4,0,11.77-1.87,16.1-5.6,4.33-3.73,6.49-9.06,6.49-15.99v-9l-11.39.6Z"/>
    <path class="st0" d="M2030.96,290.95c3.33,0,6.52-.34,9.59-1,3.06-.67,6.13-1.47,9.2-2.4v22.19c-3.2,1.33-7.17,2.49-11.9,3.5-4.73,1-9.9,1.49-15.5,1.49-6.53,0-12.36-1.06-17.49-3.2-5.13-2.13-9.2-5.82-12.2-11.09-3-5.26-4.5-12.56-4.5-21.89v-52.57h-14.19v-12.6l16.39-9.99,8.59-22.99h18.99v23.19h30.59v22.39h-30.59v52.57c0,4.13,1.2,7.23,3.6,9.3,2.4,2.06,5.53,3.1,9.4,3.1Z"/>
    <path class="st0" d="M2086.14,160.6c4.4,0,8.22,1.04,11.5,3.1,3.26,2.07,4.89,5.97,4.89,11.7s-1.63,9.26-4.89,11.39c-3.27,2.13-7.1,3.2-11.5,3.2s-8.4-1.07-11.6-3.2c-3.2-2.13-4.8-5.93-4.8-11.39s1.6-9.63,4.8-11.7c3.2-2.06,7.06-3.1,11.6-3.1ZM2101.14,203.58v109.15h-30.19v-109.15h30.19Z"/>
    <path class="st0" d="M2231.28,257.96c0,9.06-1.23,17.12-3.7,24.19-2.47,7.06-6,13-10.6,17.79-4.6,4.8-10.16,8.46-16.69,10.99-6.53,2.53-13.93,3.8-22.19,3.8-7.73,0-14.79-1.27-21.19-3.8-6.4-2.53-11.93-6.2-16.59-10.99-4.67-4.8-8.33-10.73-11-17.79-2.67-7.06-3.99-15.13-3.99-24.19,0-12.13,2.13-22.39,6.4-30.79,4.26-8.4,10.39-14.75,18.39-19.08,8-4.33,17.52-6.5,28.58-6.5,10.26,0,19.32,2.17,27.19,6.5,7.87,4.33,14.06,10.69,18.6,19.08,4.53,8.4,6.79,18.66,6.79,30.79ZM2156.11,257.96c0,7.06.77,13.13,2.3,18.19,1.53,5.07,3.93,8.93,7.19,11.6,3.27,2.67,7.56,3.99,12.89,3.99s9.43-1.33,12.69-3.99c3.27-2.67,5.63-6.53,7.1-11.6,1.47-5.06,2.2-11.12,2.2-18.19s-.77-13.26-2.3-18.19c-1.53-4.93-3.9-8.7-7.09-11.29-3.2-2.6-7.47-3.9-12.8-3.9-7.73,0-13.36,2.86-16.89,8.59-3.54,5.73-5.3,14-5.3,24.79Z"/>
    <path class="st0" d="M2317.83,201.58c12,0,21.46,3.13,28.39,9.4,6.92,6.27,10.39,16.46,10.39,30.59v71.17h-29.99v-63.57c0-7.87-1.44-13.76-4.3-17.69-2.86-3.93-7.3-5.9-13.29-5.9-9.07,0-15.23,3.1-18.49,9.29-3.27,6.2-4.9,15.1-4.9,26.69v51.18h-30.19v-109.15h23.19l4.2,14.59h1.2c2.4-3.59,5.29-6.63,8.7-9.1,3.4-2.46,7.19-4.33,11.39-5.59,4.2-1.26,8.76-1.9,13.69-1.9Z"/>
  </g>
  <g>
    <path class="st0" d="M363.53,558.21l-10.99-33.58h-50.38l-10.99,33.58h-32.99l50.18-143.33h37.58l50.58,143.33h-32.99ZM335.54,468.05c-.54-2-1.37-5-2.5-9-1.13-3.99-2.24-8.09-3.3-12.29-1.06-4.2-1.93-7.63-2.6-10.3-.54,3.07-1.3,6.6-2.3,10.6-.99,3.99-1.97,7.87-2.89,11.6-.93,3.73-1.73,6.86-2.4,9.4l-10.2,30.98h36.18l-9.99-30.98Z"/>
    <path class="st0" d="M511.66,449.05v109.15h-23.19l-3.8-14h-1.8c-2.27,3.73-5.16,6.8-8.7,9.2-3.53,2.4-7.39,4.13-11.59,5.2-4.2,1.06-8.63,1.6-13.3,1.6-7.73,0-14.49-1.4-20.29-4.2-5.8-2.8-10.33-7.13-13.59-12.99-3.27-5.87-4.9-13.46-4.9-22.79v-71.17h30.38v63.57c0,7.73,1.37,13.57,4.1,17.49,2.73,3.93,7.1,5.9,13.1,5.9s10.89-1.36,14.29-4.1c3.4-2.73,5.76-6.76,7.09-12.1,1.33-5.33,2-11.86,2-19.59v-51.18h30.19Z"/>
    <path class="st0" d="M588.03,536.42c3.33,0,6.52-.34,9.59-1,3.06-.67,6.13-1.47,9.2-2.4v22.19c-3.2,1.33-7.17,2.49-11.9,3.5-4.73,1-9.9,1.49-15.5,1.49-6.53,0-12.36-1.06-17.49-3.2-5.13-2.13-9.2-5.82-12.2-11.09-3-5.26-4.5-12.56-4.5-21.89v-52.57h-14.19v-12.6l16.39-9.99,8.59-22.99h18.99v23.19h30.59v22.39h-30.59v52.57c0,4.13,1.2,7.23,3.6,9.3,2.4,2.06,5.53,3.1,9.4,3.1Z"/>
    <path class="st0" d="M657.99,436.86c0,5.87-.17,11.03-.5,15.5-.34,4.46-.63,8.03-.9,10.69h1.6c2.4-3.86,5.2-6.92,8.39-9.2,3.2-2.26,6.76-3.96,10.7-5.1,3.93-1.13,8.09-1.7,12.49-1.7,7.86,0,14.72,1.4,20.59,4.2,5.87,2.8,10.43,7.09,13.7,12.89,3.27,5.8,4.9,13.43,4.9,22.89v71.17h-30.19v-63.57c0-7.87-1.4-13.76-4.2-17.69-2.8-3.93-7.2-5.9-13.19-5.9s-10.5,1.4-13.89,4.2c-3.4,2.8-5.83,6.87-7.3,12.2-1.47,5.33-2.2,11.86-2.2,19.59v51.18h-30.19v-151.93h30.19v30.59Z"/>
    <path class="st0" d="M858.5,503.43c0,9.06-1.23,17.12-3.7,24.19-2.47,7.06-6,13-10.6,17.79-4.6,4.8-10.16,8.46-16.69,10.99-6.53,2.53-13.93,3.8-22.19,3.8-7.73,0-14.79-1.27-21.19-3.8-6.4-2.53-11.93-6.2-16.59-10.99-4.67-4.8-8.33-10.73-11-17.79-2.67-7.06-3.99-15.13-3.99-24.19,0-12.13,2.13-22.39,6.4-30.79,4.26-8.4,10.39-14.75,18.39-19.09,8-4.33,17.52-6.49,28.58-6.49,10.26,0,19.32,2.16,27.19,6.49,7.87,4.34,14.06,10.69,18.6,19.09,4.53,8.4,6.79,18.66,6.79,30.79ZM783.33,503.43c0,7.06.77,13.13,2.3,18.19,1.53,5.07,3.93,8.93,7.19,11.6,3.27,2.67,7.56,3.99,12.89,3.99s9.43-1.33,12.69-3.99c3.27-2.67,5.63-6.53,7.1-11.6,1.47-5.06,2.2-11.12,2.2-18.19s-.77-13.26-2.3-18.19c-1.53-4.93-3.9-8.7-7.09-11.29-3.2-2.6-7.47-3.9-12.8-3.9-7.73,0-13.36,2.86-16.89,8.59-3.54,5.73-5.3,14-5.3,24.79Z"/>
    <path class="st0" d="M943.07,447.06c2,0,4.16.1,6.49.3,2.33.2,4.17.5,5.5.9l-3,28.18c-1.47-.26-3.19-.52-5.2-.79-2-.27-4.4-.4-7.19-.4-3.07,0-6.17.47-9.29,1.4-3.13.93-6.04,2.46-8.7,4.6-2.67,2.13-4.8,4.93-6.4,8.39-1.6,3.47-2.4,7.87-2.4,13.19v55.38h-30.19v-109.15h22.99l4.4,18.39h1.4c2.13-3.86,4.8-7.33,8-10.39,3.2-3.06,6.8-5.5,10.8-7.3,4-1.8,8.26-2.7,12.79-2.7Z"/>
    <path class="st0" d="M987.45,406.07c4.4,0,8.22,1.04,11.5,3.1,3.26,2.07,4.89,5.96,4.89,11.69s-1.63,9.26-4.89,11.4c-3.27,2.13-7.1,3.19-11.5,3.19s-8.4-1.06-11.6-3.19c-3.2-2.14-4.8-5.93-4.8-11.4s1.6-9.62,4.8-11.69c3.2-2.06,7.06-3.1,11.6-3.1ZM1002.44,449.05v109.15h-30.19v-109.15h30.19Z"/>
    <path class="st0" d="M1078.8,536.42c3.33,0,6.52-.34,9.59-1,3.06-.67,6.13-1.47,9.2-2.4v22.19c-3.2,1.33-7.17,2.49-11.9,3.5-4.73,1-9.9,1.49-15.5,1.49-6.53,0-12.36-1.06-17.49-3.2-5.13-2.13-9.2-5.82-12.2-11.09-3-5.26-4.5-12.56-4.5-21.89v-52.57h-14.19v-12.6l16.39-9.99,8.59-22.99h18.99v23.19h30.59v22.39h-30.59v52.57c0,4.13,1.2,7.23,3.6,9.3,2.4,2.06,5.53,3.1,9.4,3.1Z"/>
    <path class="st0" d="M1104,449.05h31.78l20.59,62.38c.66,2,1.3,4.03,1.9,6.09.6,2.07,1.13,4.17,1.6,6.3.47,2.14.83,4.2,1.1,6.2h.8c.4-2.8,1.1-5.86,2.1-9.19,1-3.33,1.96-6.47,2.89-9.4l20.19-62.38h31.18l-44.78,119.15c-2.93,8.13-6.43,15.02-10.49,20.69-4.07,5.66-9.03,9.96-14.9,12.89-5.86,2.92-13.13,4.4-21.79,4.4-3.33,0-6.26-.17-8.8-.5-2.53-.34-4.67-.7-6.39-1.1v-23.79c1.47.26,3.23.53,5.3.8,2.06.26,4.23.4,6.49.4,4.13,0,7.6-.84,10.39-2.5,2.8-1.67,5.13-3.87,7-6.6,1.87-2.73,3.46-5.83,4.8-9.3l2.4-6.2-43.38-108.35Z"/>
    <path class="st0" d="M1385.46,503.43c0,9.06-1.23,17.12-3.7,24.19-2.47,7.06-6,13-10.6,17.79-4.6,4.8-10.16,8.46-16.69,10.99-6.53,2.53-13.93,3.8-22.19,3.8-7.73,0-14.79-1.27-21.19-3.8-6.4-2.53-11.93-6.2-16.59-10.99-4.67-4.8-8.33-10.73-11-17.79-2.67-7.06-3.99-15.13-3.99-24.19,0-12.13,2.13-22.39,6.4-30.79,4.26-8.4,10.39-14.75,18.39-19.09,8-4.33,17.52-6.49,28.58-6.49,10.26,0,19.32,2.16,27.19,6.49,7.87,4.34,14.06,10.69,18.6,19.09,4.53,8.4,6.79,18.66,6.79,30.79ZM1310.29,503.43c0,7.06.77,13.13,2.3,18.19,1.53,5.07,3.93,8.93,7.19,11.6,3.27,2.67,7.56,3.99,12.89,3.99s9.43-1.33,12.69-3.99c3.27-2.67,5.63-6.53,7.1-11.6,1.47-5.06,2.2-11.12,2.2-18.19s-.77-13.26-2.3-18.19c-1.53-4.93-3.9-8.7-7.09-11.29-3.2-2.6-7.47-3.9-12.8-3.9-7.73,0-13.36,2.86-16.89,8.59-3.54,5.73-5.3,14-5.3,24.79Z"/>
    <path class="st0" d="M1471.03,471.45h-25.78v86.76h-29.79v-86.76h-16.39v-14.4l16.39-8v-8c0-9.32,1.57-16.55,4.7-21.69,3.13-5.13,7.6-8.76,13.39-10.9,5.8-2.13,12.63-3.2,20.49-3.2,5.87,0,11.16.47,15.89,1.4,4.73.93,8.57,2,11.5,3.2l-7.6,21.79c-2.27-.66-4.73-1.3-7.39-1.9-2.67-.61-5.74-.9-9.2-.9-4.13,0-7.17,1.27-9.1,3.8-1.93,2.54-2.89,5.74-2.89,9.6v6.79h25.78v22.39Z"/>
    <path class="st0" d="M1595.77,558.21h-64.97v-17.2l17.39-7.99v-92.36l-17.39-8v-17.19h64.97v17.19l-17.39,8v92.36l17.39,7.99v17.2Z"/>
    <path class="st0" d="M1679.13,447.06c12,0,21.46,3.13,28.39,9.4,6.92,6.27,10.39,16.46,10.39,30.59v71.17h-29.99v-63.57c0-7.87-1.44-13.76-4.3-17.69-2.86-3.93-7.3-5.9-13.29-5.9-9.07,0-15.23,3.1-18.49,9.29-3.27,6.2-4.9,15.1-4.9,26.69v51.18h-30.19v-109.15h23.19l4.2,14.59h1.2c2.4-3.59,5.29-6.63,8.7-9.1,3.4-2.46,7.19-4.33,11.39-5.59,4.2-1.27,8.76-1.9,13.69-1.9Z"/>
    <path class="st0" d="M1782.48,560.2c-11.99,0-21.82-4.76-29.49-14.29-7.67-9.53-11.5-23.55-11.5-42.07s3.86-32.96,11.6-42.48c7.73-9.53,17.85-14.29,30.38-14.29,5.2,0,9.69.7,13.49,2.1,3.8,1.4,7.13,3.29,9.99,5.7,2.86,2.4,5.23,5.13,7.1,8.19h1c-.4-2.4-.77-5.77-1.1-10.1-.34-4.33-.5-8.3-.5-11.9v-34.79h30.38v151.93h-23.19l-6-14.19h-1.2c-1.87,3.07-4.2,5.8-7,8.19s-6.17,4.34-10.1,5.8c-3.94,1.47-8.57,2.19-13.89,2.19ZM1793.07,536.02c8.27,0,14.06-2.37,17.39-7.1,3.33-4.72,5-11.95,5-21.69v-3.2c0-10.53-1.6-18.6-4.8-24.19-3.2-5.6-9.13-8.4-17.79-8.4-6.53,0-11.63,2.8-15.29,8.4-3.67,5.59-5.5,13.73-5.5,24.38s1.83,18.63,5.5,23.89c3.67,5.26,8.83,7.89,15.49,7.89Z"/>
    <path class="st0" d="M1888.44,406.07c4.4,0,8.22,1.04,11.5,3.1,3.26,2.07,4.89,5.96,4.89,11.69s-1.63,9.26-4.89,11.4c-3.27,2.13-7.1,3.19-11.5,3.19s-8.4-1.06-11.6-3.19c-3.2-2.14-4.8-5.93-4.8-11.4s1.6-9.62,4.8-11.69c3.2-2.06,7.06-3.1,11.6-3.1ZM1903.43,449.05v109.15h-30.19v-109.15h30.19Z"/>
    <path class="st0" d="M1981.6,447.06c13.72,0,24.19,3.23,31.38,9.69,7.2,6.47,10.8,16.03,10.8,28.68v72.77h-20.99l-5.8-14.79h-.79c-3.07,3.86-6.23,7.06-9.5,9.59-3.27,2.53-7.03,4.37-11.3,5.5-4.26,1.13-9.46,1.7-15.59,1.7s-12.13-1.23-17.19-3.7c-5.07-2.46-9.07-6.23-12-11.3-2.93-5.06-4.4-11.46-4.4-19.19,0-11.47,4.13-20.06,12.39-25.79,8.27-5.73,20.59-8.93,36.99-9.59l18.19-.61v-3.4c0-6.53-1.47-11.09-4.4-13.7-2.93-2.6-7.06-3.89-12.39-3.89-4.93,0-9.99.79-15.19,2.4-5.2,1.6-10.34,3.53-15.4,5.8l-8.8-20.59c5.73-2.93,12.3-5.26,19.69-7,7.4-1.73,15.5-2.6,24.3-2.6ZM1982.39,508.23c-9.46.27-16.06,1.8-19.79,4.6-3.73,2.8-5.6,6.73-5.6,11.79,0,4.67,1.3,8.09,3.9,10.29,2.6,2.2,6.03,3.3,10.29,3.3,6.4,0,11.77-1.87,16.1-5.6,4.33-3.73,6.49-9.06,6.49-15.99v-9l-11.39.6Z"/>
  </g>
</svg>